<svg id="Layer_1" data-name="Layer 1" xmlns="http://www.w3.org/2000/svg" viewBox="0 0 665.77 444.61"><defs><style>.cls-1{fill:#007eb5;}.cls-2{fill:#fff;}</style></defs><path class="cls-1" d="M559.27,58.15C500.52,29.44,422.65,13.62,340,13.62S179.46,29.44,120.71,58.15C59.64,88,26,128.57,26,172.36s33.64,84.34,94.71,114.2c58.75,28.71,136.62,44.53,219.28,44.53s160.53-15.82,219.28-44.53C620.34,256.7,654,216.14,654,172.36S620.34,88,559.27,58.15Z" transform="translate(-22.83 -12.02)"/><path class="cls-2" d="M657.15,172.36c0,44.22-34,85.19-95.67,115.35-59.33,29-138,45-221.49,45s-162.16-16-221.49-45c-61.69-30.16-95.67-71.13-95.67-115.35S56.81,87.16,118.5,57c59.33-29,138-45,221.49-45S502.15,28,561.48,57C623.17,87.16,657.15,128.13,657.15,172.36Zm-97.79,111c59.94-29.31,92.95-68.73,92.95-111s-33-81.71-92.95-111C500.67,32.66,422.76,16.85,340,16.85S179.31,32.66,120.62,61.35c-59.94,29.3-92.95,68.72-92.95,111s33,81.7,93,111c58.69,28.69,136.6,44.49,219.37,44.49S500.67,312.06,559.36,283.37Z" transform="translate(-22.83 -12.02)"/><path class="cls-2" d="M340,22.37c169.45,0,306.81,67.15,306.81,150s-137.36,150-306.81,150-306.81-67.15-306.81-150S170.55,22.37,340,22.37Zm0,150-266.41,0C73.58,247.88,192.86,309.1,340,309.1s266.4-61.22,266.4-136.74S487.12,35.61,340,35.61,73.58,96.83,73.58,172.36Zm266.41,0" transform="translate(-22.83 -12.02)"/><polygon class="cls-2" points="547.68 116.2 523.34 207.15 488.06 207.22 497.23 173.04 464.2 173.03 455.02 207.17 420.13 207.25 444.17 116.12 479.96 116.23 470.33 146.77 504.17 146.82 513.32 116.14 547.68 116.2"/><polygon class="cls-2" points="213.71 115.94 189.37 207.24 154.09 207.13 163.26 172.96 130.23 172.95 121.05 207.27 86.16 207.17 110.21 116.22 145.99 116.15 136.36 146.69 170.38 146.56 179.35 116.06 213.71 115.94"/><path class="cls-2" d="M321.56,128.1l14.83,91.12L301,219.16,300.11,208l-35,.07-7,11.24-39-.12,64.52-91ZM281,182.62l17,0-1.42-25.48Z" transform="translate(-22.83 -12.02)"/><path class="cls-2" d="M416.07,159.54c-.39-6.36-3.1-11.32-10-13.83-11-4-25.45,4.38-28.67,21.11-2.32,12-6.4,28.18,10,33.2,9,2.77,19.87-2.15,24.71-16.44l31.35,0c-3.54,10-9.53,19.62-18.42,26.24-22.67,16.87-65,13-77-3.53-15-20.75-9.64-55.81,16.49-72.59,21.94-14.1,64-13.74,78,6.38,2.91,4.16,4.78,11.34,4.93,19.44h-31.4" transform="translate(-22.83 -12.02)"/><path class="cls-1" d="M688.6,104.6a20.37,20.37,0,1,1-20.37-20.37A20.09,20.09,0,0,1,688.6,104.6Zm-37.57,0c0,9.74,7.34,17.46,17.2,17.46s17.2-7.72,17.2-17.46-7.34-17.47-17.2-17.47S651,94.85,651,104.6Zm12.71,11.77h-2.9V92.82h9c5.31,0,7.67,2.3,7.67,6.52s-2.74,6-5.91,6.57l7,10.46h-3.4l-6.63-10.46h-4.87Zm3.83-12.92c3.56,0,7.07-.11,7.07-4.11,0-3.29-2.74-4-5.59-4h-5.31v8.16Z" transform="translate(-22.83 -12.02)"/><path class="cls-1" d="M184,416.86h11.92c4.41,0,9.59.46,9.59,6.26s-4,8.9-9.52,8.9H180.7ZM167,441.46h29.47c11.07,0,21.13-6.11,21.13-18.1,0-5.34-2.94-9.83-8.21-11.22V412c6.51-.77,10.37-6.57,10.37-12.84,0-10.52-6.88-12.92-18-12.92H178.61Zm21.35-45.8H201.2c4,0,6.43,1.47,6.43,5.65,0,4.79-3.8,7.27-8.2,7.27H185.65Z" transform="translate(-22.83 -12.02)"/><path class="cls-1" d="M237.26,417.17c1.62-4.49,4.72-8.51,10.91-8.51,6.42,0,7.43,4.41,7.43,8.51Zm28.32,7a33.07,33.07,0,0,0,.62-6.27c0-11.6-7.51-17.48-18.65-17.48-13.62,0-22.05,11.91-22.05,24.68,0,11.37,7.12,17.48,17.79,17.48,11.53,0,17.26-4.79,20.74-13.77H253c-1.62,2.56-3.79,5.5-8.2,5.5-6,0-8.82-3.18-8.82-7.82,0-.62,0-1.31.08-2.32Z" transform="translate(-22.83 -12.02)"/><path class="cls-1" d="M315.25,395.66h11.53c4.79,0,9,.85,9,6.81,0,6.19-6.11,8.66-12.53,8.74H312Zm-21.82,45.8h12.15l4.56-21.59h11.45c4.8,0,8,1.32,8,6.66,0,3.71-.62,7.5-.62,11.22a16.38,16.38,0,0,0,.54,3.71h11.84a19.39,19.39,0,0,1-.77-6.42c0-3.4.39-7.12.39-9.59,0-4.34-1.17-8.36-5.73-9.75v-.16a14.8,14.8,0,0,0,12.69-14.86c0-10.67-6.5-14.62-16.48-14.46H305Z" transform="translate(-22.83 -12.02)"/><path class="cls-1" d="M358.73,401.46H369.8l-8.52,40H350.22Zm12.3-6.19H360l2-9H373Z" transform="translate(-22.83 -12.02)"/><path class="cls-1" d="M396.26,408.66c5.33,0,7.89,3.63,7.89,8.66,0,6.81-3.8,15.24-11.68,15.24-5.11,0-7.44-4.1-7.44-8.82C385,417.32,388.9,408.66,396.26,408.66Zm22.12-7.2H407.86l-1.24,6.11h-.15c-2.25-5.26-6.73-7.19-12.23-7.19-12.84,0-20.19,12.45-20.19,24.14,0,9.82,5.88,16.32,15.4,16.32a13.12,13.12,0,0,0,11-5.64l.16.15c-2.17,7.81-4.18,13.93-11.14,13.93-3.56,0-7.35-1.7-7.2-5.73h-11c0,9.59,9,13.08,17.09,13.08,13.23,0,19.34-5.11,22.05-17.26Z" transform="translate(-22.83 -12.02)"/><path class="cls-1" d="M432.16,386.22h11L439,406.1h.16c1.7-2.32,6-5.72,13.23-5.72,7.58,0,11.68,3.79,11.68,10.75A47.14,47.14,0,0,1,463,418L458,441.46H447L451.88,418a27.33,27.33,0,0,0,.7-4.88c0-2.39-2.71-4.1-5.26-4.1-6.66,0-10.06,5.57-11.22,11.14l-4.49,21.28h-11Z" transform="translate(-22.83 -12.02)"/><path class="cls-1" d="M491.89,401.46h7.89l-1.71,7.35h-7.81l-4.1,19.89a16.27,16.27,0,0,0-.31,1.85c0,2.87,2.09,2.94,3.72,2.94a32.65,32.65,0,0,0,3.94-.23l-1.86,8.51a67.64,67.64,0,0,1-6.88.39c-5.11,0-10.6-1.63-10.45-8.13a20.2,20.2,0,0,1,.54-3.79l4.49-21.43h-7.19l1.7-7.35h7l2.47-12.15h11Z" transform="translate(-22.83 -12.02)"/><path class="cls-1" d="M544.69,398.56h-4.56V384.67H540l-5,13.89H531.7l-5-13.89h-.09v13.89H522V379h6.47l4.9,12.89,4.9-12.89h6.42Zm-25.21-15.8h-5.57v15.8h-4.85v-15.8H503.5V379h16Z" transform="translate(-22.83 -12.02)"/></svg>